<svg width="17" height="9" viewBox="0 0 17 9" version="1.1" xmlns="http://www.w3.org/2000/svg" xmlns:xlink="http://www.w3.org/1999/xlink" xmlns:figma="http://www.figma.com/figma/ns">
<title>delivery-truck</title>
<desc>Created using Figma</desc>
<g id="Canvas" transform="translate(22 628)" figma:type="canvas">
<g id="delivery-truck" style="mix-blend-mode:normal;" figma:type="frame">
<g id="Vector" style="mix-blend-mode:normal;" figma:type="vector">
<use xlink:href="#path0_fill" transform="translate(-19.369 -628)" fill="#777777" style="mix-blend-mode:normal;"/>
</g>
<g id="Vector" style="mix-blend-mode:normal;" figma:type="vector">
<use xlink:href="#path1_fill" transform="translate(-9.04762 -625.976)" fill="#777777" style="mix-blend-mode:normal;"/>
</g>
<g id="Vector" style="mix-blend-mode:normal;" figma:type="vector">
<use xlink:href="#path2_fill" transform="translate(-17.3452 -621.524)" fill="#777777" style="mix-blend-mode:normal;"/>
</g>
<g id="Vector" style="mix-blend-mode:normal;" figma:type="vector">
<use xlink:href="#path2_fill" transform="translate(-8.03571 -621.524)" fill="#777777" style="mix-blend-mode:normal;"/>
</g>
<g id="Vector" style="mix-blend-mode:normal;" figma:type="vector">
<use xlink:href="#path3_fill" transform="translate(-22 -626.786)" fill="#777777" style="mix-blend-mode:normal;"/>
</g>
<g id="Vector" style="mix-blend-mode:normal;" figma:type="vector">
<use xlink:href="#path3_fill" transform="translate(-22 -624.762)" fill="#777777" style="mix-blend-mode:normal;"/>
</g>
<g id="Vector" style="mix-blend-mode:normal;" figma:type="vector">
<use xlink:href="#path3_fill" transform="translate(-22 -622.738)" fill="#777777" style="mix-blend-mode:normal;"/>
</g>
</g>
</g>
<defs>
<path id="path0_fill" d="M 9.91667 0L 9.91667 7.28571L 4.43619 7.28571C 4.33905 6.59762 3.75012 6.07143 3.03571 6.07143C 2.32131 6.07143 1.73238 6.59762 1.63524 7.28571L 0 7.28571L 0 0L 9.91667 0Z"/>
<path id="path1_fill" d="M 2.63095 0L 0 0L 0 5.2619L 0.623334 5.2619C 0.720477 4.57381 1.3094 4.04762 2.02381 4.04762C 2.73821 4.04762 3.32714 4.57381 3.42429 5.2619L 4.04762 5.2619L 4.04762 1.41667C 4.04762 0.633452 3.41417 0 2.63095 0ZM 3.64286 2.02381L 0.404762 2.02381L 0.404762 0.404762L 2.38405 0.404762C 3.44048 0.404762 3.64286 0.967381 3.64286 1.66357L 3.64286 2.02381Z"/>
<path id="path2_fill" d="M 1.0119 2.02381C 1.57076 2.02381 2.02381 1.57076 2.02381 1.0119C 2.02381 0.453045 1.57076 0 1.0119 0C 0.453045 0 0 0.453045 0 1.0119C 0 1.57076 0.453045 2.02381 1.0119 2.02381Z"/>
<path id="path3_fill" d="M 2.02381 0L 0 0L 0 0.404762L 2.02381 0.404762L 2.02381 0Z"/>
</defs>
</svg>
