<svg width="11" height="20" viewBox="0 0 11 20" version="1.1" xmlns="http://www.w3.org/2000/svg" xmlns:xlink="http://www.w3.org/1999/xlink" xmlns:figma="http://www.figma.com/figma/ns">
<title>noun_432887_cc</title>
<desc>Created using Figma</desc>
<g id="Canvas" transform="translate(74 491)" figma:type="canvas">
<g id="noun_432887_cc" style="mix-blend-mode:normal;" figma:type="frame">
<g id="Vector" style="mix-blend-mode:normal;" figma:type="vector">
<use xlink:href="#path0_fill" transform="translate(-74 -491)" fill="#FF3A3A" style="mix-blend-mode:normal;"/>
</g>
<g id="Group" style="mix-blend-mode:normal;" figma:type="frame">
<g id="Vector" style="mix-blend-mode:normal;" figma:type="vector">
<use xlink:href="#path1_fill" transform="translate(-72.1546 -484.736)" fill="#FF3A3A" style="mix-blend-mode:normal;"/>
</g>
</g>
</g>
</g>
<defs>
<path id="path0_fill" d="M 9.20689 4.12523e-08L 1.61773 4.12523e-08C 0.727992 4.12523e-08 -5.96842e-08 0.727992 -5.96842e-08 1.61773L -5.96842e-08 18.3823C -5.96842e-08 19.272 0.727992 20 1.61773 20L 9.20689 20C 10.0966 20 10.8246 19.272 10.8246 18.3823L 10.8246 1.61797C 10.8249 0.728222 10.0966 4.12523e-08 9.20689 4.12523e-08ZM 3.63467 1.27284L 7.18973 1.27284C 7.3402 1.27284 7.4633 1.39593 7.4633 1.54641C 7.4633 1.69688 7.3402 1.81998 7.18973 1.81998L 3.63467 1.81998C 3.48419 1.81998 3.3611 1.69688 3.3611 1.54641C 3.3611 1.39593 3.48419 1.27284 3.63467 1.27284ZM 5.41231 19.3116C 4.88036 19.3116 4.44894 18.8802 4.44894 18.3482C 4.44894 17.8163 4.88036 17.3848 5.41231 17.3848C 5.94427 17.3848 6.37568 17.8163 6.37568 18.3482C 6.37568 18.8804 5.94427 19.3116 5.41231 19.3116ZM 10.0506 16.7063L 0.774009 16.7063L 0.774009 2.95569L 10.0506 2.95569L 10.0506 16.7063Z"/>
<path id="path1_fill" d="M 5.8323 7.09081C 5.00745 7.01948 4.34066 6.716 3.71367 6.31772C 2.24158 5.38242 1.0785 4.16342 0.333017 2.57215C 0.235 2.363 0.157921 2.14051 0.0987892 1.91686C -0.149014 0.977193 0.0576041 0.683833 0.852321 0.0952729C 0.912144 0.0508663 0.991754 0.0209551 1.06607 0.0106013C 1.71445 -0.0795925 1.96617 0.423606 2.25285 0.840292C 2.55657 1.2816 2.53471 1.59612 2.24756 1.93803C 1.79015 2.48219 1.74367 2.61564 2.22087 3.14944C 2.80299 3.80058 3.44079 4.40962 4.10666 4.9754C 4.53531 5.33962 4.69292 5.28049 5.10316 4.90407C 5.47751 4.56055 5.73912 4.52857 6.18871 4.77591C 6.27913 4.82561 6.36472 4.88428 6.45008 4.9425C 7.51078 5.66635 7.24411 6.25629 6.28603 6.97577C 6.15534 7.07378 5.9439 7.06481 5.8323 7.09081Z"/>
</defs>
</svg>
