<svg xmlns="http://www.w3.org/2000/svg" xmlns:xlink="http://www.w3.org/1999/xlink" xml:space="preserve" version="1.1" style="shape-rendering:geometricPrecision;text-rendering:geometricPrecision;image-rendering:optimizeQuality;" viewBox="0 0 10000 12500" x="0px" y="0px" fill-rule="evenodd" clip-rule="evenodd"><defs><style type="text/css">
   
    .fil0 {fill:black}
   
  </style></defs><g><path class="fil0" d="M3452 4386c-422,0 -742,333 -742,799l0 261c0,457 306,832 717,847 -19,-68 -30,-140 -30,-214 0,-438 355,-793 793,-793 438,0 792,355 792,793 0,74 -10,146 -29,215l2049 0c-19,-69 -30,-141 -30,-215 0,-438 355,-793 793,-793 438,0 792,355 792,793 0,74 -10,146 -29,215l95 0 494 0c367,0 686,-967 -59,-1595 -343,-290 -764,-401 -1183,-475 -235,-276 -573,-594 -1000,-884 -170,-115 -388,-70 -147,102 509,362 934,944 774,944l-1123 0 -70 -103c-78,-118 -276,-166 -350,-166l-169 0c-189,0 -252,81 -255,218l-1 51 -68 0 -88 -475c-17,-91 -105,-165 -196,-165l-18 0c-90,0 -151,74 -134,165l88 475 -1600 0 -66 0zm-921 1573l-1403 0c-89,0 -162,73 -162,162l0 0c0,90 73,163 162,163l1403 0c90,0 163,-73 163,-163l0 0c0,-89 -73,-162 -163,-162zm-195 -524l-1684 0c-89,0 -162,73 -162,162l0 0c0,89 73,162 162,162l1684 0c90,0 163,-73 163,-162l0 0c0,-89 -73,-162 -163,-162zm15 -525l-977 0c-90,0 -163,73 -163,163l0 0c0,89 73,162 163,162l977 0c90,0 163,-73 163,-162l0 0c0,-90 -73,-163 -163,-163zm180 -524l-1596 0c-89,0 -162,73 -162,162l0 0c0,90 73,163 162,163l1596 0c90,0 163,-73 163,-163l0 0c0,-89 -73,-162 -163,-162zm5234 2338c356,0 645,-289 645,-645 0,-357 -289,-646 -645,-646 -356,0 -645,289 -645,646 0,356 289,645 645,645zm0 -423c123,0 222,-100 222,-222 0,-123 -99,-222 -222,-222 -123,0 -222,99 -222,222 0,122 99,222 222,222zm-3575 423c356,0 645,-289 645,-645 0,-357 -289,-646 -645,-646 -357,0 -645,289 -645,646 0,356 288,645 645,645zm0 -423c122,0 222,-100 222,-222 0,-123 -100,-222 -222,-222 -123,0 -222,99 -222,222 0,122 99,222 222,222zm1643 -3021c195,0 353,158 353,354 0,195 -158,353 -353,353 -196,0 -354,-158 -354,-353 0,-196 158,-354 354,-354zm3062 1700c90,0 225,147 299,328 75,181 63,328 -28,328 -91,0 -225,-147 -300,-328 -75,-181 -62,-328 29,-328z"/></g><text x="0" y="10015" fill="#000000" font-size="5px" font-weight="bold" font-family="'Helvetica Neue', Helvetica, Arial-Unicode, Arial, Sans-serif">Created by Hadi Davodpour</text><text x="0" y="10020" fill="#000000" font-size="5px" font-weight="bold" font-family="'Helvetica Neue', Helvetica, Arial-Unicode, Arial, Sans-serif">from the Noun Project</text></svg>